<?xml version="1.0" standalone="no"?>
<!DOCTYPE svg PUBLIC "-//W3C//DTD SVG 20010904//EN"
 "http://www.w3.org/TR/2001/REC-SVG-20010904/DTD/svg10.dtd">
<svg version="1.0" xmlns="http://www.w3.org/2000/svg"
 width="512.000000pt" height="100.000000pt" viewBox="0 0 512.000000 100.000000"
 preserveAspectRatio="xMidYMid meet">

<g transform="translate(0.000000,100.000000) scale(0.100000,-0.100000)"
fill="#000000" stroke="none">
<path d="M101 634 c7 -8 9 -59 7 -139 -3 -120 -2 -125 17 -125 19 0 20 5 17
70 l-4 70 81 0 81 0 0 -44 c0 -25 -4 -56 -10 -70 -9 -24 -8 -26 21 -26 26 0
29 2 19 19 -13 25 -13 216 0 241 9 17 7 19 -19 17 -24 -2 -27 -5 -20 -19 5 -9
9 -35 9 -57 l0 -41 -80 0 -80 0 0 48 c0 26 5 53 12 60 9 9 3 11 -25 10 -29 -1
-34 -4 -26 -14z"/>
<path d="M657 643 c-4 -3 -7 -13 -7 -22 0 -12 3 -12 12 -3 7 7 27 12 46 12
l33 0 -3 -130 -3 -130 28 0 c24 0 26 2 17 19 -5 11 -10 70 -10 132 l0 112 50
-5 c38 -4 50 -2 50 8 0 11 -23 14 -103 14 -57 0 -107 -3 -110 -7z"/>
<path d="M1192 627 c-34 -36 -27 -63 28 -121 33 -35 50 -62 50 -78 0 -44 -60
-54 -92 -16 l-18 20 0 -21 c0 -46 94 -52 125 -8 27 39 19 66 -40 123 -30 30
-55 60 -55 67 0 21 22 37 50 37 14 0 31 -5 38 -12 9 -9 12 -7 12 10 0 19 -6
22 -38 22 -27 0 -45 -7 -60 -23z"/>
<path d="M1423 630 c-64 -38 -86 -104 -59 -175 22 -56 84 -91 146 -81 33 5 51
0 115 -34 66 -35 84 -40 138 -39 l62 1 -61 13 c-54 12 -184 68 -184 80 0 2 11
21 25 41 47 69 27 152 -45 193 -47 26 -96 27 -137 1z m130 -21 c65 -50 54
-184 -17 -217 -35 -16 -97 2 -123 34 -43 55 -38 155 10 189 31 22 99 19 130
-6z"/>
<path d="M1686 632 c10 -9 14 -41 14 -106 0 -79 3 -97 20 -119 41 -52 136 -44
165 14 10 18 15 59 15 117 0 54 5 93 12 100 9 9 4 11 -20 9 -19 -1 -27 -6 -21
-11 5 -6 9 -52 9 -104 0 -90 -1 -95 -29 -122 -26 -26 -32 -28 -62 -20 -54 16
-60 32 -57 151 l3 107 -31 -1 c-27 -1 -29 -3 -18 -15z"/>
<path d="M2255 633 c15 -14 17 -34 13 -138 l-4 -122 56 -1 c108 -3 169 40 178
126 9 101 -52 151 -186 152 -69 0 -72 -1 -57 -17z m153 -20 c58 -27 80 -109
47 -173 -20 -39 -43 -50 -103 -50 -36 0 -52 4 -56 16 -12 30 -7 209 6 222 14
14 55 8 106 -15z"/>
<path d="M2700 635 c8 -10 11 -52 8 -140 l-3 -125 47 0 c62 0 102 32 100 81
-1 24 -9 40 -28 55 -25 21 -26 23 -10 45 37 53 2 99 -77 99 -42 0 -48 -2 -37
-15z m85 -11 c10 -11 15 -29 13 -53 -3 -31 -7 -36 -30 -39 -28 -3 -28 -2 -28
52 0 60 13 72 45 40z m16 -133 c33 -34 37 -60 12 -89 -13 -16 -25 -19 -45 -15
-27 5 -28 8 -28 69 0 75 13 82 61 35z"/>
<path d="M2982 630 c-98 -60 -95 -198 6 -242 72 -32 142 -11 182 55 41 67 18
152 -50 187 -50 25 -96 25 -138 0z m138 -28 c55 -56 49 -165 -12 -202 -54 -33
-128 -6 -154 55 -18 44 -18 89 1 125 20 38 41 49 93 50 35 0 49 -6 72 -28z"/>
<path d="M3303 630 c-63 -38 -86 -108 -58 -178 30 -74 131 -103 202 -57 57 38
80 124 48 185 -18 35 -81 70 -127 70 -18 0 -47 -9 -65 -20z m137 -28 c79 -79
25 -234 -74 -215 -50 9 -67 22 -87 66 -23 52 -24 79 -2 124 18 39 41 51 96 52
30 1 45 -6 67 -27z"/>
<path d="M3591 634 c7 -8 9 -59 7 -139 -3 -120 -2 -125 17 -125 19 0 21 5 17
65 -2 36 -2 65 0 65 3 0 34 -29 70 -65 39 -40 73 -65 86 -65 17 0 6 16 -56 75
l-77 75 68 65 c65 63 67 65 37 63 -16 -1 -30 -7 -30 -13 0 -6 -22 -36 -50 -66
l-49 -54 -1 56 c0 30 5 60 12 67 9 9 3 11 -25 10 -29 -1 -34 -4 -26 -14z"/>
<path d="M3865 626 c-14 -14 -25 -30 -25 -36 0 -22 23 -56 66 -96 48 -45 54
-64 25 -93 -21 -21 -54 -19 -83 7 -16 14 -18 13 -18 -1 0 -38 72 -49 114 -16
44 35 36 77 -24 135 -39 37 -50 55 -48 74 3 23 7 25 51 23 58 -2 61 20 4 25
-28 2 -42 -3 -62 -22z"/>
<path d="M4022 638 c-7 -7 -12 -19 -12 -27 1 -13 2 -13 11 2 7 12 22 17 50 17
l41 0 -4 -130 c-3 -124 -2 -130 17 -130 19 0 20 6 17 130 l-4 130 34 0 c19 0
39 -5 46 -12 9 -9 12 -7 12 10 0 21 -4 22 -98 22 -63 0 -102 -4 -110 -12z"/>
<path d="M4343 629 c-46 -29 -67 -67 -67 -120 0 -140 173 -187 251 -70 45 67
23 155 -47 191 -50 25 -96 25 -137 -1z m137 -27 c79 -79 25 -234 -74 -215 -66
13 -101 60 -101 134 0 71 36 107 108 108 30 1 45 -6 67 -27z"/>
<path d="M4628 638 c17 -17 17 -239 0 -256 -9 -9 -5 -12 20 -12 30 0 32 2 22
20 -6 12 -10 35 -8 53 2 27 8 33 31 35 15 2 27 -1 27 -6 0 -18 86 -102 105
-102 13 0 5 14 -34 54 -28 30 -51 56 -51 58 0 2 9 21 20 43 26 51 25 71 -5
100 -20 21 -34 25 -82 25 -44 0 -54 -3 -45 -12z m99 -20 c22 -17 27 -76 9
-103 -19 -28 -60 -34 -70 -9 -8 20 -8 119 0 126 7 7 45 -2 61 -14z"/>
<path d="M4901 633 c7 -7 9 -61 7 -138 l-3 -126 59 3 c33 2 61 8 63 13 2 6
-15 9 -42 7 l-45 -4 1 113 c0 62 2 116 4 120 3 4 21 3 40 -1 27 -6 35 -5 35 6
0 14 -14 17 -92 19 -28 1 -35 -2 -27 -12z"/>
<path d="M500 615 c-6 -16 -28 -73 -47 -125 -20 -52 -40 -101 -46 -107 -7 -10
-3 -13 14 -13 20 0 24 5 26 34 3 57 18 76 62 76 36 0 39 -3 55 -43 9 -23 16
-48 16 -55 0 -7 12 -12 26 -12 20 0 24 3 16 13 -6 6 -33 68 -60 137 -49 123
-50 124 -62 95z m19 -57 c25 -68 25 -68 -14 -68 -31 0 -36 3 -30 18 4 9 12 29
17 45 12 33 16 34 27 5z"/>
<path d="M2059 613 c-6 -16 -24 -66 -41 -113 -16 -47 -36 -95 -44 -107 -13
-21 -13 -23 8 -23 18 0 23 6 24 28 1 15 7 39 13 55 9 23 16 27 50 27 36 0 40
-3 55 -40 9 -22 16 -47 16 -55 0 -9 10 -15 25 -15 28 0 31 7 11 29 -7 9 -32
67 -56 129 -24 61 -45 112 -47 112 -2 0 -8 -12 -14 -27z m20 -55 c25 -66 24
-68 -8 -68 -35 0 -35 0 -20 53 12 43 16 45 28 15z"/>
<path d="M989 603 c-6 -16 -24 -64 -41 -108 -16 -44 -36 -90 -44 -102 -14 -22
-13 -23 10 -23 17 0 24 5 24 18 -1 9 4 34 11 55 12 37 14 38 54 35 39 -3 41
-5 57 -53 14 -42 21 -50 45 -53 l28 -4 -19 25 c-11 13 -37 72 -59 130 -22 59
-43 107 -48 107 -4 0 -12 -12 -18 -27z m29 -56 c18 -49 15 -57 -18 -57 -16 0
-30 3 -30 6 0 16 24 84 30 84 3 0 11 -15 18 -33z"/>
<path d="M4980 520 c-25 -6 -25 -6 5 -12 33 -7 44 -2 29 11 -5 4 -20 5 -34 1z"/>
</g>
</svg>
